<?xml version="1.0" encoding="utf-8"?>
<!-- Generator: Adobe Illustrator 16.0.0, SVG Export Plug-In . SVG Version: 6.00 Build 0)  -->
<!DOCTYPE svg PUBLIC "-//W3C//DTD SVG 1.1//EN" "http://www.w3.org/Graphics/SVG/1.1/DTD/svg11.dtd">
<svg version="1.1" id="Layer_1" xmlns="http://www.w3.org/2000/svg" xmlns:xlink="http://www.w3.org/1999/xlink" x="0px" y="0px"
	 width="1024px" height="1024px" viewBox="0 0 1024 1024" enable-background="new 0 0 1024 1024" xml:space="preserve">
<path fill="#FFFFFF" d="M537.206,613.99l266.253-380.062l170.931-97.95L605.856,662.031c-7.844,11.201-20.655,17.855-34.325,17.855
	c-23.13,0-41.902-18.753-41.902-41.877C529.629,629.41,532.275,621.025,537.206,613.99L537.206,613.99z"/>
<polygon fill="#FFFFFF" points="397.364,390.853 266.969,204.716 96.041,106.768 346.208,463.872 "/>
<path fill="#FFFFFF" d="M237.999,807.931l-170.928,97.95l368.53-526.054c7.843-11.201,20.655-17.87,34.325-17.87
	c23.129,0,41.902,18.767,41.902,41.89c0,8.601-2.646,16.986-7.577,24.021l0,0L237.999,807.931z"/>
<path fill="#FFFFFF" d="M473.033,662.031l164.042-234.164c4.937-7.034,7.583-15.42,7.583-24.021c0-23.124-18.772-41.89-41.909-41.89
	c-13.67,0-26.482,6.668-34.324,17.87l0,0L404.38,613.99c-4.932,7.035-7.578,15.42-7.578,24.021
	c0,23.124,18.772,41.877,41.905,41.877C452.378,679.888,465.19,673.232,473.033,662.031L473.033,662.031z"/>
<polygon fill="#FFFFFF" points="644.09,651.006 695.25,577.986 945.412,935.091 774.488,837.142 "/>
<polygon fill="#FFFFFF" points="764.562,479.04 981.07,479.04 922.385,562.806 705.876,562.806 "/>
<polygon fill="#FFFFFF" points="119.072,479.04 335.578,479.04 276.895,562.806 60.39,562.806 "/>
</svg>
